<svg xmlns="http://www.w3.org/2000/svg" viewBox="0 0 64 64" width="64" height="64">
  <\!-- 盾の外枠 -->
  <path d="M32,4 L56,16 L56,36 Q56,54 32,60 Q8,54 8,36 L8,16 Z" 
        fill="#2A4A8B" stroke="#1A3070" stroke-width="2"/>
  <\!-- 盾の内枠 -->
  <path d="M32,10 L50,20 L50,36 Q50,50 32,55 Q14,50 14,36 L14,20 Z" 
        fill="#3A5AA0" stroke="#2A4A8B" stroke-width="1"/>
  <\!-- 紋章（剣のシルエット） -->
  <polygon points="32,18 34,30 32,33 30,30" fill="#FFD700" opacity="0.9"/>
  <rect x="27" y="30" width="10" height="3" rx="1" fill="#FFD700" opacity="0.9"/>
  <rect x="30.5" y="33" width="3" height="8" rx="0.5" fill="#FFD700" opacity="0.9"/>
  <\!-- 金属リベット -->
  <circle cx="20" cy="22" r="2" fill="#B8960C"/>
  <circle cx="44" cy="22" r="2" fill="#B8960C"/>
  <circle cx="20" cy="44" r="2" fill="#B8960C"/>
  <circle cx="44" cy="44" r="2" fill="#B8960C"/>
</svg>